<svg width="20.000000" height="20.000000" viewBox="0 0 20 20" fill="none" xmlns="http://www.w3.org/2000/svg" xmlns:xlink="http://www.w3.org/1999/xlink">
	<desc>
			Created with Pixso.
	</desc>
	<defs/>
	<path id="Vector" d="M10 0C7.28 0 6.94 0.01 5.87 0.06C4.81 0.11 4.08 0.27 3.45 0.52C2.79 0.78 2.23 1.12 1.67 1.67C1.12 2.23 0.77 2.79 0.52 3.44C0.27 4.08 0.1 4.81 0.05 5.87C0.01 6.94 0 7.28 0 10C0 12.71 0.01 13.05 0.05 14.12C0.1 15.18 0.27 15.91 0.52 16.54C0.77 17.21 1.16 17.82 1.67 18.32C2.17 18.83 2.78 19.22 3.45 19.47C4.08 19.72 4.81 19.89 5.87 19.93C6.94 19.99 7.28 20 10 20C12.71 20 13.05 19.98 14.12 19.93C15.18 19.88 15.91 19.72 16.54 19.47C17.21 19.22 17.82 18.83 18.32 18.32C18.83 17.82 19.22 17.21 19.47 16.54C19.72 15.91 19.89 15.18 19.94 14.12C19.99 13.05 20 12.71 20 10C20 7.28 19.98 6.94 19.94 5.87C19.89 4.81 19.72 4.08 19.47 3.44C19.22 2.78 18.83 2.17 18.32 1.67C17.82 1.16 17.21 0.77 16.54 0.52C15.91 0.27 15.18 0.1 14.12 0.06C13.05 0.01 12.71 0 10 0ZM10 1.8C12.66 1.8 12.98 1.81 14.04 1.85C15.01 1.9 15.54 2.06 15.89 2.2C16.36 2.38 16.69 2.6 17.04 2.95C17.39 3.3 17.61 3.63 17.79 4.1C17.93 4.45 18.09 4.98 18.14 5.95C18.18 7.01 18.19 7.33 18.19 10C18.19 12.66 18.18 12.98 18.13 14.04C18.08 15.01 17.92 15.54 17.78 15.89C17.62 16.33 17.36 16.72 17.03 17.04C16.71 17.38 16.32 17.63 15.88 17.79C15.53 17.93 14.99 18.09 14.02 18.13C12.96 18.18 12.65 18.19 9.97 18.19C7.29 18.19 6.98 18.18 5.92 18.13C4.95 18.08 4.41 17.92 4.06 17.78C3.62 17.62 3.23 17.36 2.91 17.03C2.57 16.71 2.32 16.32 2.16 15.88C2.02 15.53 1.86 14.99 1.81 14.02C1.77 12.97 1.76 12.64 1.76 9.98C1.76 7.32 1.77 6.99 1.81 5.93C1.86 4.96 2.02 4.42 2.16 4.07C2.33 3.6 2.56 3.27 2.91 2.92C3.26 2.57 3.58 2.35 4.06 2.17C4.41 2.03 4.93 1.87 5.91 1.82C6.97 1.78 7.28 1.77 9.96 1.77L10 1.8ZM10 4.86C9.32 4.86 8.65 4.99 8.03 5.25C7.41 5.51 6.84 5.89 6.36 6.36C5.89 6.84 5.51 7.41 5.25 8.03C4.99 8.65 4.86 9.32 4.86 10C4.86 10.67 4.99 11.34 5.25 11.96C5.51 12.58 5.89 13.15 6.36 13.63C6.84 14.1 7.41 14.48 8.03 14.74C8.65 15 9.32 15.13 10 15.13C11.36 15.13 12.66 14.59 13.63 13.63C14.59 12.66 15.13 11.36 15.13 10C15.13 8.63 14.59 7.33 13.63 6.36C12.66 5.4 11.36 4.86 10 4.86ZM10 13.33C8.15 13.33 6.66 11.84 6.66 10C6.66 8.15 8.15 6.66 10 6.66C11.84 6.66 13.33 8.15 13.33 10C13.33 11.84 11.84 13.33 10 13.33ZM16.53 4.66C16.52 4.97 16.39 5.26 16.17 5.48C15.94 5.69 15.64 5.81 15.33 5.81C15.02 5.81 14.72 5.69 14.5 5.48C14.28 5.26 14.14 4.97 14.13 4.66C14.13 4.34 14.26 4.03 14.48 3.81C14.71 3.58 15.02 3.46 15.33 3.46C15.65 3.46 15.96 3.58 16.18 3.81C16.41 4.03 16.53 4.34 16.53 4.66Z" fill="#FF6262" fill-opacity="1.000000" fill-rule="nonzero"/>
</svg>
