<svg width="70.688629" height="60.000000" viewBox="0 0 70.6886 60" fill="none" xmlns="http://www.w3.org/2000/svg" xmlns:xlink="http://www.w3.org/1999/xlink">
	<desc>
			Created with Pixso.
	</desc>
	<defs/>
	<path id="“" d="M70.68 9.37C60.1 14.57 54.8 20.69 54.8 27.72C59.32 28.24 63.05 30.08 66 33.25C68.95 36.42 70.42 40.08 70.42 44.25C70.42 48.67 68.99 52.4 66.13 55.44C63.26 58.48 59.66 60 55.32 60C50.46 60 46.25 58.02 42.7 54.07C39.14 50.13 37.36 45.33 37.36 39.69C37.36 22.77 46.82 9.54 65.74 0L70.68 9.37ZM33.32 9.37C22.65 14.57 17.31 20.69 17.31 27.72C21.91 28.24 25.68 30.08 28.63 33.25C31.58 36.42 33.06 40.08 33.06 44.25C33.06 48.67 31.61 52.4 28.7 55.44C25.79 58.48 22.17 60 17.83 60C12.97 60 8.78 58.02 5.27 54.07C1.75 50.13 0 45.33 0 39.69C0 22.77 9.41 9.54 28.24 0L33.32 9.37Z" fill="#C2D8FE" fill-opacity="1.000000" fill-rule="evenodd"/>
</svg>
