<svg width="70.688629" height="60.000000" viewBox="0 0 70.6886 60" fill="none" xmlns="http://www.w3.org/2000/svg" xmlns:xlink="http://www.w3.org/1999/xlink">
	<desc>
			Created with Pixso.
	</desc>
	<defs/>
	<path id="“" d="M0 9.37C10.58 14.57 15.88 20.69 15.88 27.72C11.36 28.24 7.63 30.08 4.68 33.25C1.73 36.42 0.26 40.08 0.26 44.25C0.26 48.67 1.69 52.4 4.55 55.44C7.41 58.48 11.02 60 15.36 60C20.22 60 24.42 58.02 27.98 54.07C31.54 50.13 33.32 45.33 33.32 39.69C33.32 22.77 23.86 9.54 4.94 0L0 9.37ZM37.36 9.37C48.03 14.57 53.37 20.69 53.37 27.72C48.77 28.24 45 30.08 42.05 33.25C39.09 36.42 37.62 40.08 37.62 44.25C37.62 48.67 39.07 52.4 41.98 55.44C44.89 58.48 48.51 60 52.85 60C57.71 60 61.9 58.02 65.41 54.07C68.93 50.13 70.68 45.33 70.68 39.69C70.68 22.77 61.27 9.54 42.44 0L37.36 9.37Z" fill="#C2D8FE" fill-opacity="1.000000" fill-rule="evenodd"/>
</svg>
