<svg width="30.000000" height="30.000000" viewBox="0 0 30 30" fill="none" xmlns="http://www.w3.org/2000/svg" xmlns:xlink="http://www.w3.org/1999/xlink">
	<desc>
			Created with Pixso.
	</desc>
	<defs>
		<clipPath id="clip2_60">
			<rect id="24-hours (1) 1" rx="-0.500000" width="29.000000" height="29.000000" transform="translate(0.500000 0.500000)" fill="white" fill-opacity="0"/>
		</clipPath>
	</defs>
	<rect id="24-hours (1) 1" rx="-0.500000" width="29.000000" height="29.000000" transform="translate(0.500000 0.500000)" fill="#FFFFFF" fill-opacity="0"/>
	<g clip-path="url(#clip2_60)">
		<path id="Vector" d="M30 15C30 23.28 23.28 30 15 30C6.71 30 0 23.28 0 15C0 6.71 6.71 0 15 0C23.28 0 30 6.71 30 15Z" fill="#FFDF40" fill-opacity="1.000000" fill-rule="nonzero"/>
		<path id="Vector" d="M30 15C30 13.48 29.77 12.01 29.35 10.63L25.23 6.51L23.55 7.47C23.44 7.36 23.33 7.24 23.21 7.13C21.07 4.89 18.11 3.62 15 3.62C8.72 3.62 3.62 8.72 3.62 15C3.62 18.22 4.97 21.14 7.14 23.22C7.14 23.22 11.59 27.67 13.88 29.95C14.25 29.98 14.62 30 15 30C23.28 30 30 23.28 30 15Z" fill="#FF9F40" fill-opacity="1.000000" fill-rule="nonzero"/>
		<path id="Vector" d="M25.1 15C25.1 20.57 20.57 25.1 15 25.1C9.42 25.1 4.89 20.57 4.89 15C4.89 9.42 9.42 4.89 15 4.89C20.57 4.89 25.1 9.42 25.1 15Z" fill="#FFFFFF" fill-opacity="1.000000" fill-rule="nonzero"/>
		<path id="Vector" d="M25.1 15C25.1 20.57 20.58 25.09 15 25.1L15 4.89C19.54 4.9 23.38 7.89 24.65 12.02C24.94 12.96 25.1 13.96 25.1 15Z" fill="#FFFFFF" fill-opacity="1.000000" fill-rule="nonzero"/>
		<path id="Vector" d="M23.83 15C23.83 19.86 19.86 23.83 15 23.83C10.13 23.83 6.16 19.86 6.16 15C6.16 10.13 10.13 6.16 15 6.16C17.37 6.16 19.62 7.11 21.27 8.78L19.61 9.73L24.65 12.02L25.23 6.51L23.53 7.48C21.37 5.02 18.27 3.62 15 3.62C8.72 3.62 3.62 8.72 3.62 15C3.62 21.27 8.72 26.37 15 26.37C21.27 26.37 26.37 21.27 26.37 15L23.83 15Z" fill="#262626" fill-opacity="1.000000" fill-rule="nonzero"/>
		<path id="Vector" d="M21.27 8.78C19.62 7.11 17.37 6.17 15 6.16L15 3.62C18.28 3.62 21.37 5.03 23.54 7.48L25.23 6.51L24.65 12.02L24.65 12.02L19.61 9.73L21.27 8.78Z" fill="#262626" fill-opacity="1.000000" fill-rule="nonzero"/>
		<path id="Vector" d="M26.37 15C26.37 21.26 21.27 26.37 15 26.37L15 23.83C19.87 23.82 23.83 19.86 23.83 15L26.37 15Z" fill="#262626" fill-opacity="1.000000" fill-rule="nonzero"/>
		<path id="Vector" d="M8.58 18.15C8.58 17.79 8.6 17.46 8.66 17.16C8.72 16.86 8.82 16.59 8.96 16.34C9.1 16.09 9.3 15.85 9.54 15.63C9.79 15.41 10.11 15.2 10.49 14.98C10.82 14.81 11.12 14.65 11.37 14.52C11.63 14.38 11.84 14.26 12.01 14.14C12.18 14.03 12.31 13.91 12.4 13.8C12.49 13.68 12.54 13.54 12.54 13.39C12.54 13.14 12.44 12.94 12.24 12.76C12.05 12.59 11.77 12.5 11.4 12.5C11.21 12.5 11.03 12.53 10.87 12.58C10.7 12.63 10.55 12.7 10.41 12.79C10.27 12.88 10.14 12.98 10.02 13.09C9.9 13.2 9.79 13.32 9.7 13.44L8.65 12.23C8.75 12.12 8.91 11.99 9.1 11.86C9.29 11.73 9.52 11.6 9.79 11.48C10.05 11.36 10.34 11.27 10.67 11.19C10.99 11.11 11.33 11.07 11.7 11.07C12.11 11.07 12.48 11.12 12.8 11.23C13.13 11.33 13.4 11.47 13.63 11.65C13.85 11.83 14.02 12.05 14.14 12.31C14.26 12.57 14.31 12.84 14.31 13.14C14.31 13.43 14.26 13.68 14.16 13.9C14.05 14.12 13.92 14.31 13.75 14.48C13.59 14.66 13.41 14.8 13.22 14.93C13.03 15.06 12.85 15.17 12.67 15.26C12.52 15.35 12.36 15.44 12.17 15.54C11.98 15.65 11.8 15.77 11.62 15.89C11.43 16.02 11.26 16.15 11.11 16.28C10.96 16.42 10.84 16.55 10.76 16.68L14.45 16.68L14.45 18.15L8.58 18.15Z" fill="#262626" fill-opacity="1.000000" fill-rule="nonzero"/>
		<path id="Vector" d="M18.79 19.7L18.79 17.88L15.23 17.88L15.23 16.43L19.31 11.2L20.42 11.2L20.42 16.42L21.49 16.42L21.49 17.88L20.42 17.88L20.42 19.7L18.79 19.7ZM16.86 16.42L18.97 16.42L18.97 13.67L16.86 16.42Z" fill="#262626" fill-opacity="1.000000" fill-rule="nonzero"/>
	</g>
</svg>
