<svg width="29.999786" height="30.000000" viewBox="0 0 29.9998 30" fill="none" xmlns="http://www.w3.org/2000/svg" xmlns:xlink="http://www.w3.org/1999/xlink">
	<desc>
			Created with Pixso.
	</desc>
	<defs/>
	<path id="Vector" d="M8.81 14.02C3.82 13.55 0 9.41 0 4.39L0 2.63C0 1.18 1.18 0 2.63 0C4.09 0 5.27 1.18 5.27 2.63C5.27 3.12 5.66 3.51 6.15 3.51L7.96 3.51C8.45 3.51 8.84 3.9 8.84 4.39C8.84 4.88 8.45 5.27 7.96 5.27L6.15 5.27C4.69 5.27 3.51 4.09 3.51 2.63C3.51 2.15 3.12 1.75 2.63 1.75C2.15 1.75 1.75 2.15 1.75 2.63L1.75 4.39C1.75 8.5 4.89 11.88 8.97 12.26C9.46 12.31 9.81 12.74 9.77 13.22C9.72 13.7 9.29 14.06 8.81 14.02Z" fill="#FFBE40" fill-opacity="1.000000" fill-rule="nonzero"/>
	<path id="Vector" d="M20.28 13.22C20.24 12.74 20.59 12.31 21.08 12.26C25.16 11.88 28.24 8.5 28.24 4.39L28.24 2.63C28.24 2.15 27.84 1.75 27.36 1.75C26.87 1.75 26.48 2.15 26.48 2.63C26.48 4.09 25.3 5.27 23.84 5.27L22.08 5.27C21.6 5.27 21.21 4.88 21.21 4.39C21.21 3.9 21.6 3.51 22.08 3.51L23.84 3.51C24.33 3.51 24.72 3.12 24.72 2.63C24.72 1.18 25.9 0 27.36 0C28.81 0 29.99 1.18 29.99 2.63L29.99 4.39C29.99 9.41 26.23 13.55 21.24 14.02C20.76 14.06 20.33 13.7 20.28 13.22Z" fill="#FF9F40" fill-opacity="1.000000" fill-rule="nonzero"/>
	<path id="Vector" d="M22.08 0L15 0L7.96 0C7.48 0 7.08 0.39 7.08 0.87L7.08 9.66C7.08 13.02 9.22 15.99 12.36 17.1L12.36 23.84L15 23.84L17.63 23.84L17.63 17.1C20.77 15.99 22.96 13.02 22.96 9.66L22.96 0.87C22.96 0.39 22.57 0 22.08 0Z" fill="#FFDF40" fill-opacity="1.000000" fill-rule="nonzero"/>
	<path id="Vector" d="M17.63 17.1C20.77 15.99 22.96 13.02 22.96 9.66L22.96 0.87C22.96 0.39 22.57 0 22.08 0L15 0L15 23.84L17.63 23.84L17.63 17.1Z" fill="#FFBE40" fill-opacity="1.000000" fill-rule="nonzero"/>
	<path id="Vector" d="M19.48 6.77C19.38 6.45 19.11 6.22 18.77 6.17L16.71 5.87L15.78 4C15.64 3.7 15.32 3.55 15 3.55C14.67 3.55 14.35 3.7 14.21 4L13.28 5.87L11.22 6.17C10.88 6.22 10.61 6.45 10.51 6.77C10.4 7.09 10.49 7.44 10.73 7.67L12.22 9.13L11.87 11.19C11.82 11.52 11.95 11.85 12.22 12.05C12.49 12.25 12.85 12.27 13.15 12.12L14.99 11.14L16.84 12.12C17.14 12.27 17.5 12.25 17.77 12.05C18.04 11.85 18.18 11.52 18.12 11.19L17.77 9.13L19.26 7.67C19.5 7.44 19.59 7.09 19.48 6.77Z" fill="#FFFFFF" fill-opacity="1.000000" fill-rule="nonzero"/>
	<path id="Vector" d="M17.77 12.05C18.04 11.85 18.18 11.52 18.12 11.19L17.77 9.13L19.26 7.67C19.5 7.44 19.59 7.09 19.48 6.77C19.38 6.45 19.11 6.22 18.77 6.17L16.71 5.87L15.78 4C15.64 3.7 15.32 3.55 15 3.55L15 11.14L16.84 12.12C17.14 12.27 17.5 12.25 17.77 12.05Z" fill="#FFFFFF" fill-opacity="1.000000" fill-rule="nonzero"/>
	<path id="Vector" d="M22.03 26.48L21.15 26.48L21.15 23.84C21.15 23.36 20.75 22.96 20.27 22.96L15 22.96L9.72 22.96C9.24 22.96 8.84 23.36 8.84 23.84L8.84 26.48L7.96 26.48C7.48 26.48 7.08 26.87 7.08 27.36L7.08 29.12C7.08 29.6 7.48 30 7.96 30L15 30L22.03 30C22.51 30 22.91 29.6 22.91 29.12L22.91 27.36C22.91 26.87 22.51 26.48 22.03 26.48Z" fill="#FFFFFF" fill-opacity="1.000000" fill-rule="nonzero"/>
	<path id="Vector" d="M22.91 29.12L22.91 27.36C22.91 26.87 22.51 26.48 22.03 26.48L21.15 26.48L21.15 23.84C21.15 23.36 20.75 22.96 20.27 22.96L15 22.96L15 30L22.03 30C22.51 30 22.91 29.6 22.91 29.12Z" fill="#FFFFFF" fill-opacity="1.000000" fill-rule="nonzero"/>
	<path id="Vector" d="M16.75 25.6L15 25.6L13.24 25.6C12.75 25.6 12.36 25.99 12.36 26.48C12.36 26.97 12.75 27.36 13.24 27.36L15 27.36L16.75 27.36C17.24 27.36 17.63 26.97 17.63 26.48C17.63 25.99 17.24 25.6 16.75 25.6Z" fill="#FFDF40" fill-opacity="1.000000" fill-rule="nonzero"/>
	<path id="Vector" d="M17.63 26.48C17.63 25.99 17.24 25.6 16.75 25.6L15 25.6L15 27.36L16.75 27.36C17.24 27.36 17.63 26.97 17.63 26.48Z" fill="#FFDF40" fill-opacity="1.000000" fill-rule="nonzero"/>
</svg>
