<svg width="40.000000" height="40.000000" viewBox="0 0 40 40" fill="none" xmlns="http://www.w3.org/2000/svg" xmlns:xlink="http://www.w3.org/1999/xlink">
	<desc>
			Created with Pixso.
	</desc>
	<defs>
		<clipPath id="clip2_257">
			<rect id="dumbbell 1" rx="-0.500000" width="39.000000" height="39.000000" transform="translate(0.500000 0.500000)" fill="white" fill-opacity="0"/>
		</clipPath>
	</defs>
	<rect id="dumbbell 1" rx="-0.500000" width="39.000000" height="39.000000" transform="translate(0.500000 0.500000)" fill="#FFFFFF" fill-opacity="0"/>
	<g clip-path="url(#clip2_257)">
		<path id="Vector" d="M39.3 12.28L35.99 8.97L38.48 6.49C38.69 6.27 38.82 5.97 38.82 5.66C38.82 5.35 38.69 5.05 38.48 4.83L35.15 1.5C34.71 1.06 33.93 1.06 33.49 1.5L31 3.99L27.7 0.68C26.78 -0.23 25.3 -0.23 24.38 0.68C23.47 1.6 23.47 3.08 24.38 4L35.98 15.6C36.9 16.51 38.38 16.51 39.3 15.6C40.21 14.68 40.21 13.2 39.3 12.28Z" fill="#4472E8" fill-opacity="1.000000" fill-rule="nonzero"/>
		<path id="Vector" d="M15.61 35.99L4.01 24.39C3.09 23.48 1.61 23.48 0.69 24.39C-0.22 25.31 -0.22 26.79 0.69 27.71L4 31.02L1.52 33.5C1.3 33.72 1.18 34.01 1.18 34.32C1.18 34.64 1.3 34.93 1.52 35.15L4.85 38.48C5.08 38.71 5.38 38.82 5.68 38.82C5.98 38.82 6.28 38.71 6.51 38.48L8.99 36L12.3 39.31C13.21 40.22 14.69 40.22 15.61 39.31C16.52 38.39 16.52 36.91 15.61 35.99Z" fill="#4472E8" fill-opacity="1.000000" fill-rule="nonzero"/>
		<path id="Vector" d="M21.07 13.94L13.95 21.08L18.92 26.05L26.04 18.91L21.07 13.94Z" fill="#4472E8" fill-opacity="1.000000" fill-rule="nonzero"/>
		<path id="Vector" d="M35.98 18.91L21.07 4C20.15 3.08 18.67 3.08 17.75 4C16.84 4.91 16.84 6.4 17.75 7.31L32.67 22.23C33.58 23.14 35.07 23.14 35.98 22.23C36.9 21.31 36.9 19.83 35.98 18.91Z" fill="#4472E8" fill-opacity="1.000000" fill-rule="nonzero"/>
		<path id="Vector" d="M22.24 32.68L7.32 17.76C6.41 16.85 4.92 16.85 4.01 17.76C3.09 18.68 3.09 20.16 4.01 21.08L18.92 35.99C19.84 36.91 21.32 36.91 22.24 35.99C23.15 35.08 23.15 33.59 22.24 32.68Z" fill="#4472E8" fill-opacity="1.000000" fill-rule="nonzero"/>
	</g>
</svg>
