<svg width="40.000000" height="35.146729" viewBox="0 0 40 35.1467" fill="none" xmlns="http://www.w3.org/2000/svg" xmlns:xlink="http://www.w3.org/1999/xlink">
	<desc>
			Created with Pixso.
	</desc>
	<defs/>
	<path id="Vector" d="M10 10.62C11.42 10.62 12.57 9.46 12.57 8.04C12.57 6.62 11.42 5.46 10 5.46C8.57 5.46 7.42 6.62 7.42 8.04C7.42 9.46 8.57 10.62 10 10.62Z" fill="#4472E8" fill-opacity="1.000000" fill-rule="nonzero"/>
	<path id="Vector" d="M10 12.96C9.48 12.96 8.98 12.88 8.51 12.73L6.17 14.06L6.17 15.62L13.82 15.62L13.82 14.06L11.49 12.73C11.01 12.88 10.51 12.96 10 12.96Z" fill="#4472E8" fill-opacity="1.000000" fill-rule="nonzero"/>
	<path id="Vector" d="M40 27.49L40 23.65L0 23.65L0 27.49L16.25 27.49L16.25 30.53L13.87 32.8L10.58 32.8L10.58 35.14L29.41 35.14L29.41 32.8L26.12 32.8L23.75 30.53L23.75 27.49L40 27.49Z" fill="#4472E8" fill-opacity="1.000000" fill-rule="nonzero"/>
	<path id="Vector" d="M40 21.31L40 0L0 0L0 21.31L40 21.31ZM23.61 4.37L36.24 4.37L36.24 6.71L23.61 6.71L23.61 4.37ZM23.61 9.37L33.74 9.37L33.74 11.71L23.61 11.71L23.61 9.37ZM23.61 14.37L36.24 14.37L36.24 16.71L23.61 16.71L23.61 14.37ZM18.75 4.37L21.24 4.37L21.24 6.71L18.75 6.71L18.75 4.37ZM18.75 9.37L21.24 9.37L21.24 11.71L18.75 11.71L18.75 9.37ZM18.75 14.37L21.24 14.37L21.24 16.71L18.75 16.71L18.75 14.37ZM3.82 12.69L6.3 11.29C5.54 10.42 5.07 9.28 5.07 8.04C5.07 5.33 7.28 3.12 10 3.12C12.71 3.12 14.92 5.33 14.92 8.04C14.92 9.28 14.45 10.42 13.69 11.29L16.17 12.69L16.17 17.96L3.82 17.96L3.82 12.69L3.82 12.69Z" fill="#4472E8" fill-opacity="1.000000" fill-rule="nonzero"/>
</svg>
