<svg width="154.919983" height="24.169922" viewBox="0 0 154.92 24.1699" fill="none" xmlns="http://www.w3.org/2000/svg" xmlns:xlink="http://www.w3.org/1999/xlink">
	<desc>
			Created with Pixso.
	</desc>
	<defs/>
	<path id="StayHealthy" d="M111.16 17.75L111.16 0L106.46 0L106.46 17.75L111.16 17.75ZM135.45 4.85Q134.34 4.17 132.81 4.17Q131.42 4.17 130.35 4.74Q129.44 5.22 128.85 5.95Q128.75 6.08 128.66 6.21L128.66 0L123.96 0L123.96 17.75L128.66 17.75L128.66 10.53Q128.66 9.43 129.2 8.79Q129.23 8.75 129.26 8.72Q129.41 8.55 129.6 8.42Q130.13 8.06 130.92 8.06Q131.6 8.06 132.1 8.36Q132.33 8.51 132.52 8.72Q132.56 8.76 132.59 8.8Q133.13 9.45 133.13 10.53L133.13 17.75L137.83 17.75L137.83 9.91Q137.83 7.4 136.6 5.88Q136.54 5.8 136.47 5.72Q136.02 5.2 135.45 4.85ZM2.03 16.52Q3.93 17.92 6.89 17.92Q8.83 17.92 10.25 17.23Q11.51 16.62 12.25 15.62Q12.35 15.48 12.44 15.33Q12.66 14.99 12.81 14.62Q13.2 13.7 13.2 12.62Q13.2 11.27 12.57 10.34Q12.51 10.25 12.44 10.16Q11.87 9.42 11.13 8.94Q10.89 8.78 10.64 8.65Q9.6 8.1 7.99 7.55Q6.91 7.17 6.36 6.92Q5.81 6.67 5.43 6.32Q5.21 6.11 5.12 5.86Q5.06 5.69 5.06 5.49Q5.06 5.01 5.3 4.72Q5.34 4.66 5.4 4.61Q5.48 4.52 5.58 4.46Q5.87 4.29 6.26 4.29Q6.83 4.29 7.24 4.55Q7.32 4.61 7.4 4.68Q7.46 4.72 7.51 4.78Q7.85 5.15 7.87 5.83L12.98 5.83Q12.9 4.19 12.12 3.03Q11.71 2.43 11.1 1.95Q9.33 0.57 6.38 0.57Q4.56 0.57 3.12 1.17Q1.98 1.64 1.24 2.47Q1.04 2.69 0.86 2.94Q0.76 3.08 0.67 3.24Q0.05 4.3 0.05 5.73Q0.05 7.34 0.8 8.33Q1.51 9.26 2.44 9.77Q2.51 9.81 2.58 9.84Q3.6 10.36 5.25 10.92Q6.82 11.42 7.51 11.83Q7.91 12.07 8.08 12.41Q8.2 12.67 8.2 12.98Q8.2 13.32 8.06 13.57Q7.95 13.75 7.78 13.88Q7.77 13.89 7.75 13.91Q7.34 14.2 6.72 14.2Q6.13 14.2 5.72 13.94Q5.62 13.87 5.54 13.8Q5.09 13.39 5.01 12.5L0 12.5Q0.09 14.18 0.91 15.36Q1.36 16.02 2.03 16.52ZM72.67 17.75L72.67 0.83L67.96 0.83L67.96 7.2L62.23 7.2L62.23 0.83L57.52 0.83L57.52 17.75L62.23 17.75L62.23 10.96L67.96 10.96L67.96 17.75L72.67 17.75ZM23.32 17.75L23.32 13.75L21.96 13.75Q21.36 13.75 21.1 13.51Q20.85 13.27 20.85 12.72L20.85 8.2L23.3 8.2L23.3 4.29L20.85 4.29L20.85 1.03L16.12 1.03L16.12 4.29L14.47 4.29L14.47 8.2L16.12 8.2L16.12 12.65Q16.12 15.17 17.39 16.45Q18.68 17.75 21.29 17.75L23.32 17.75ZM121.8 17.75L121.8 13.75L120.43 13.75Q119.83 13.75 119.58 13.51Q119.32 13.27 119.32 12.72L119.32 8.2L121.77 8.2L121.77 4.29L119.32 4.29L119.32 1.03L114.6 1.03L114.6 4.29L112.94 4.29L112.94 8.2L114.6 8.2L114.6 12.65Q114.6 15.17 115.86 16.45Q117.15 17.75 119.76 17.75L121.8 17.75ZM25.47 7.37Q24.72 8.92 24.72 11.01Q24.72 13.1 25.47 14.67Q26.13 16.04 27.21 16.86Q27.37 16.98 27.53 17.09Q28.06 17.42 28.64 17.63Q29.49 17.92 30.45 17.92Q31.82 17.92 32.84 17.37Q33.6 16.96 34.1 16.33Q34.27 16.12 34.41 15.89L34.41 17.75L39.12 17.75L39.12 4.29L34.41 4.29L34.41 6.16Q34.24 5.88 34.03 5.62Q33.55 5.06 32.85 4.68Q31.85 4.12 30.45 4.12Q29.51 4.12 28.66 4.41Q28.07 4.62 27.53 4.96Q27.36 5.08 27.19 5.2Q26.13 6.01 25.47 7.37ZM88.19 11.59Q88.22 11.23 88.22 10.86Q88.22 8.8 87.35 7.28Q86.91 6.48 86.27 5.88Q85.69 5.33 84.96 4.94Q83.42 4.12 81.43 4.12Q79.42 4.12 77.86 4.96Q77.14 5.35 76.57 5.9Q75.91 6.52 75.45 7.35Q74.59 8.9 74.59 11.01Q74.59 13.12 75.46 14.68Q75.94 15.54 76.63 16.18Q77.19 16.71 77.89 17.09Q77.92 17.11 77.95 17.12Q79.48 17.92 81.43 17.92Q83.08 17.92 84.45 17.3Q85.57 16.79 86.38 15.96Q86.56 15.78 86.72 15.59Q87.14 15.08 87.43 14.5Q87.77 13.84 87.94 13.1L82.92 13.1Q82.67 13.62 82.25 13.89Q81.83 14.16 81.24 14.16Q80.69 14.16 80.27 13.93Q80.04 13.81 79.85 13.62Q79.32 13.07 79.25 11.97L88.15 11.97Q88.18 11.78 88.19 11.59ZM90.13 7.37Q89.37 8.92 89.37 11.01Q89.37 13.1 90.13 14.67Q90.79 16.04 91.86 16.86Q92.02 16.98 92.19 17.09Q92.72 17.42 93.3 17.63Q94.15 17.92 95.11 17.92Q96.48 17.92 97.5 17.37Q98.26 16.96 98.76 16.33Q98.93 16.12 99.07 15.89L99.07 17.75L103.77 17.75L103.77 4.29L99.07 4.29L99.07 6.16Q98.9 5.88 98.68 5.62Q98.21 5.06 97.51 4.68Q96.5 4.12 95.11 4.12Q94.16 4.12 93.32 4.41Q92.73 4.62 92.19 4.96Q92.02 5.08 91.85 5.2Q90.78 6.01 90.13 7.37ZM47.76 24.16L56.3 4.29L51.14 4.29L48.41 11.92L45.57 4.29L40.34 4.29L45.86 17.18L42.65 24.16L47.76 24.16ZM146.37 24.16L154.92 4.29L149.76 4.29L147.02 11.92L144.19 4.29L138.96 4.29L144.48 17.18L141.26 24.16L146.37 24.16ZM83.15 8.68Q83.42 9.1 83.42 9.69L79.27 9.69Q79.44 8.78 79.99 8.31L79.99 8.31Q80.07 8.24 80.15 8.19Q80.66 7.84 81.41 7.84Q82.06 7.84 82.55 8.13Q82.71 8.22 82.84 8.33Q83.03 8.49 83.15 8.68ZM33.86 9.15Q34.41 9.86 34.41 11.01Q34.41 12.21 33.83 12.93Q33.77 13.01 33.7 13.07Q33.35 13.44 32.92 13.63Q32.48 13.82 31.96 13.82Q31.39 13.82 30.93 13.6Q30.53 13.41 30.21 13.06Q30.15 12.99 30.09 12.92Q29.52 12.19 29.52 11.01Q29.52 9.77 30.13 9.05Q30.17 9 30.21 8.96Q30.51 8.64 30.88 8.46Q31.36 8.23 31.96 8.23Q32.48 8.23 32.92 8.42Q33.35 8.6 33.7 8.97Q33.79 9.06 33.86 9.15ZM98.51 9.15Q99.07 9.86 99.07 11.01Q99.07 12.21 98.48 12.93Q98.42 13.01 98.36 13.07Q98.01 13.44 97.58 13.63Q97.14 13.82 96.62 13.82Q96.05 13.82 95.59 13.6Q95.19 13.41 94.87 13.06Q94.8 12.99 94.75 12.92Q94.18 12.19 94.18 11.01Q94.18 9.77 94.79 9.05Q94.83 9 94.87 8.96Q95.17 8.64 95.54 8.46Q96.02 8.23 96.62 8.23Q97.14 8.23 97.58 8.42Q98.01 8.6 98.36 8.97Q98.44 9.06 98.51 9.15Z" fill="#FFFFFF" fill-opacity="1.000000" fill-rule="evenodd"/>
</svg>
