<svg width="50.000000" height="50.000000" viewBox="0 0 50 50" fill="none" xmlns="http://www.w3.org/2000/svg" xmlns:xlink="http://www.w3.org/1999/xlink">
	<desc>
			Created with Pixso.
	</desc>
	<defs>
		<clipPath id="clip2_228">
			<rect id="ri:timer-flash-fill" rx="-0.500000" width="49.000000" height="49.000000" transform="translate(0.500000 0.500000)" fill="white" fill-opacity="0"/>
		</clipPath>
	</defs>
	<rect id="ri:timer-flash-fill" rx="-0.500000" width="49.000000" height="49.000000" transform="translate(0.500000 0.500000)" fill="#FFFFFF" fill-opacity="0"/>
	<g clip-path="url(#clip2_228)">
		<path id="Vector" d="M13.29 12.43C16.61 9.77 20.74 8.32 25 8.33C29.42 8.33 33.49 9.86 36.7 12.43L39.73 9.4L42.67 12.35L39.65 15.37C41.85 18.13 43.23 21.46 43.63 24.97C44.02 28.47 43.42 32.02 41.89 35.21C40.36 38.39 37.96 41.07 34.97 42.95C31.98 44.83 28.53 45.83 25 45.83C21.46 45.83 18.01 44.83 15.02 42.95C12.03 41.07 9.63 38.39 8.1 35.21C6.57 32.02 5.97 28.47 6.36 24.97C6.76 21.46 8.14 18.13 10.35 15.37L7.32 12.35L10.26 9.4L13.29 12.43L13.29 12.43ZM27.08 25L27.08 15.61L16.66 29.16L22.91 29.16L22.91 38.54L33.33 25L27.08 25ZM16.66 2.08L33.33 2.08L33.33 6.25L16.66 6.25L16.66 2.08Z" fill="#4572E8" fill-opacity="1.000000" fill-rule="nonzero"/>
	</g>
</svg>
