<svg width="30.000000" height="40.000000" viewBox="0 0 30 40" fill="none" xmlns="http://www.w3.org/2000/svg" xmlns:xlink="http://www.w3.org/1999/xlink">
	<desc>
			Created with Pixso.
	</desc>
	<defs/>
	<path id="Vector" d="M11.25 0L18.75 0C19.52 -0.01 20.28 0.23 20.91 0.68C21.54 1.13 22.02 1.76 22.28 2.5L26.25 2.5C27.24 2.5 28.19 2.89 28.9 3.59C29.6 4.3 30 5.25 30 6.25L30 36.25C30 37.24 29.6 38.19 28.9 38.9C28.19 39.6 27.24 40 26.25 40L3.75 40C2.75 40 1.8 39.6 1.09 38.9C0.39 38.19 0 37.24 0 36.25L0 6.25C0 5.25 0.39 4.3 1.09 3.59C1.8 2.89 2.75 2.5 3.75 2.5L7.71 2.5C7.97 1.76 8.45 1.13 9.08 0.68C9.71 0.23 10.47 -0.01 11.25 0ZM10 3.75C10 4.08 10.13 4.39 10.36 4.63C10.6 4.86 10.91 5 11.25 5L18.75 5C19.08 5 19.39 4.86 19.63 4.63C19.86 4.39 20 4.08 20 3.75C20 3.41 19.86 3.1 19.63 2.86C19.39 2.63 19.08 2.5 18.75 2.5L11.25 2.5C10.91 2.5 10.6 2.63 10.36 2.86C10.13 3.1 10 3.41 10 3.75ZM21.87 18.12C22.37 18.12 22.84 17.92 23.2 17.57C23.55 17.22 23.75 16.74 23.75 16.25C23.75 15.75 23.55 15.27 23.2 14.92C22.84 14.57 22.37 14.37 21.87 14.37C21.37 14.37 20.9 14.57 20.54 14.92C20.19 15.27 20 15.75 20 16.25C20 16.74 20.19 17.22 20.54 17.57C20.9 17.92 21.37 18.12 21.87 18.12ZM21.87 25.62C22.37 25.62 22.84 25.42 23.2 25.07C23.55 24.72 23.75 24.24 23.75 23.75C23.75 23.25 23.55 22.77 23.2 22.42C22.84 22.07 22.37 21.87 21.87 21.87C21.37 21.87 20.9 22.07 20.54 22.42C20.19 22.77 20 23.25 20 23.75C20 24.24 20.19 24.72 20.54 25.07C20.9 25.42 21.37 25.62 21.87 25.62ZM20 31.25C20 31.74 20.19 32.22 20.54 32.57C20.9 32.92 21.37 33.12 21.87 33.12C22.37 33.12 22.84 32.92 23.2 32.57C23.55 32.22 23.75 31.74 23.75 31.25C23.75 30.75 23.55 30.27 23.2 29.92C22.84 29.57 22.37 29.37 21.87 29.37C21.37 29.37 20.9 29.57 20.54 29.92C20.19 30.27 20 30.75 20 31.25ZM17.5 16.25C17.5 15.91 17.36 15.6 17.13 15.36C16.89 15.13 16.58 15 16.25 15L7.5 15C7.16 15 6.85 15.13 6.61 15.36C6.38 15.6 6.25 15.91 6.25 16.25C6.25 16.58 6.38 16.89 6.61 17.13C6.85 17.36 7.16 17.5 7.5 17.5L16.25 17.5C16.58 17.5 16.89 17.36 17.13 17.13C17.36 16.89 17.5 16.58 17.5 16.25ZM17.5 23.75C17.5 23.41 17.36 23.1 17.13 22.86C16.89 22.63 16.58 22.5 16.25 22.5L7.5 22.5C7.16 22.5 6.85 22.63 6.61 22.86C6.38 23.1 6.25 23.41 6.25 23.75C6.25 24.08 6.38 24.39 6.61 24.63C6.85 24.86 7.16 25 7.5 25L16.25 25C16.58 25 16.89 24.86 17.13 24.63C17.36 24.39 17.5 24.08 17.5 23.75ZM17.5 31.25C17.5 30.91 17.36 30.6 17.13 30.36C16.89 30.13 16.58 30 16.25 30L7.5 30C7.16 30 6.85 30.13 6.61 30.36C6.38 30.6 6.25 30.91 6.25 31.25C6.25 31.58 6.38 31.89 6.61 32.13C6.85 32.36 7.16 32.5 7.5 32.5L16.25 32.5C16.58 32.5 16.89 32.36 17.13 32.13C17.36 31.89 17.5 31.58 17.5 31.25Z" fill="#4472E8" fill-opacity="1.000000" fill-rule="nonzero"/>
</svg>
