<svg width="22.000000" height="22.000000" viewBox="0 0 22 22" fill="none" xmlns="http://www.w3.org/2000/svg" xmlns:xlink="http://www.w3.org/1999/xlink">
	<desc>
			Created with Pixso.
	</desc>
	<defs/>
	<path id="Vector" d="M11 0C4.92 0 0 4.92 0 11C0 17.07 4.92 22 11 22C17.07 22 22 17.07 22 11C22 4.92 17.07 0 11 0ZM15.76 9.14C15.85 9.03 15.92 8.92 15.96 8.79C16 8.66 16.02 8.53 16.01 8.4C16 8.27 15.96 8.14 15.9 8.02C15.84 7.9 15.75 7.79 15.65 7.71C15.55 7.62 15.43 7.56 15.3 7.52C15.17 7.48 15.04 7.47 14.91 7.48C14.78 7.5 14.65 7.54 14.53 7.6C14.41 7.66 14.31 7.75 14.23 7.85L9.93 13.01L7.7 10.79C7.51 10.61 7.26 10.51 7 10.51C6.74 10.51 6.49 10.61 6.3 10.8C6.11 10.99 6.01 11.24 6.01 11.5C6.01 11.76 6.11 12.01 6.29 12.2L9.29 15.2C9.39 15.3 9.5 15.38 9.63 15.43C9.76 15.48 9.9 15.5 10.04 15.49C10.18 15.49 10.32 15.45 10.44 15.39C10.56 15.33 10.67 15.24 10.76 15.14L15.76 9.14Z" fill="#63C776" fill-opacity="1.000000" fill-rule="evenodd"/>
</svg>
